<svg width="32" height="32" viewBox="0 0 32 32" fill="none" xmlns="http://www.w3.org/2000/svg">
                                        <rect width="32" height="32" rx="16" fill="white" fill-opacity="0.08" />
                                        <path d="M9.5998 13.2L8.6798 11.32L6.7998 10.4L8.6798 9.48L9.5998 7.6L10.5198 9.48L12.3998 10.4L10.5198 11.32L9.5998 13.2ZM21.1998 22.8L20.1598 20.64L17.9998 19.6L20.1598 18.56L21.1998 16.4L22.2398 18.56L24.3998 19.6L22.2398 20.64L21.1998 22.8ZM15.8598 23.6C15.3931 23.6 14.9499 23.5032 14.5302 23.3096C14.1099 23.1165 13.7465 22.8467 13.4398 22.5L9.1998 17.6L10.2798 16.52C10.5465 16.2533 10.8665 16.1 11.2398 16.06C11.6131 16.02 11.9598 16.1067 12.2798 16.32L13.5998 17.2V10.8C13.5998 10.36 13.7566 9.98346 14.0702 9.6704C14.3833 9.3568 14.7598 9.2 15.1998 9.2C15.2665 9.2 15.3331 9.2032 15.3998 9.2096C15.4665 9.21653 15.5331 9.23333 15.5998 9.26V9.2C15.5998 8.76 15.7566 8.3832 16.0702 8.0696C16.3833 7.75653 16.7598 7.6 17.1998 7.6C17.5198 7.6 17.8065 7.6832 18.0598 7.8496C18.3131 8.01653 18.5065 8.23333 18.6398 8.5C18.7331 8.47333 18.8233 8.44987 18.9102 8.4296C18.9966 8.40987 19.0931 8.4 19.1998 8.4C19.6398 8.4 20.0166 8.55653 20.3302 8.8696C20.6433 9.1832 20.7998 9.56 20.7998 10V10.06C20.8665 10.0333 20.9331 10.0165 20.9998 10.0096C21.0665 10.0032 21.1331 10 21.1998 10C21.6398 10 22.0166 10.1568 22.3302 10.4704C22.6433 10.7835 22.7998 11.16 22.7998 11.6V14.4H21.5998V11.6C21.5998 11.4933 21.5598 11.4 21.4798 11.32C21.3998 11.24 21.3065 11.2 21.1998 11.2C21.0931 11.2 20.9998 11.24 20.9198 11.32C20.8398 11.4 20.7998 11.4933 20.7998 11.6V15.6H19.5998V10C19.5998 9.89333 19.5598 9.8 19.4798 9.72C19.3998 9.64 19.3065 9.6 19.1998 9.6C19.0931 9.6 18.9998 9.64 18.9198 9.72C18.8398 9.8 18.7998 9.89333 18.7998 10V15.6H17.5998V9.2C17.5998 9.09333 17.5598 9 17.4798 8.92C17.3998 8.84 17.3065 8.8 17.1998 8.8C17.0931 8.8 16.9998 8.84 16.9198 8.92C16.8398 9 16.7998 9.09333 16.7998 9.2V15.6H15.5998V10.8C15.5998 10.6933 15.5598 10.6032 15.4798 10.5296C15.3998 10.4565 15.3065 10.42 15.1998 10.42C15.0931 10.42 14.9998 10.46 14.9198 10.54C14.8398 10.62 14.7998 10.7133 14.7998 10.82V19.46L11.6198 17.34C11.5131 17.2733 11.4131 17.2533 11.3198 17.28C11.2265 17.3067 11.1598 17.34 11.1198 17.38L10.8398 17.66L14.3598 21.72C14.5465 21.9467 14.7699 22.1168 15.0302 22.2304C15.2899 22.3435 15.5665 22.4 15.8598 22.4H18.5998L19.1998 23.6H15.8598Z" fill="#6280BB" />
                                    </svg>