<svg width="33" height="32" viewBox="0 0 33 32" fill="none" xmlns="http://www.w3.org/2000/svg">
                                        <rect x="0.333008" width="32" height="32" rx="16" fill="white" fill-opacity="0.08" />
                                        <path d="M15.833 22C15.8863 22 15.9397 21.9867 15.993 21.96C16.0463 21.9333 16.0863 21.9067 16.113 21.88L22.673 15.32C22.833 15.16 22.9498 14.98 23.0234 14.78C23.0965 14.58 23.133 14.38 23.133 14.18C23.133 13.9667 23.0965 13.7632 23.0234 13.5696C22.9498 13.3765 22.833 13.2067 22.673 13.06L19.273 9.66C19.1263 9.5 18.9565 9.3832 18.7634 9.3096C18.5698 9.23653 18.3663 9.2 18.153 9.2C17.953 9.2 17.753 9.23653 17.553 9.3096C17.353 9.3832 17.173 9.5 17.013 9.66L16.793 9.88L18.273 11.38C18.473 11.5667 18.6197 11.78 18.713 12.02C18.8063 12.26 18.853 12.5133 18.853 12.78C18.853 13.34 18.6631 13.8099 18.2834 14.1896C17.9031 14.5699 17.433 14.76 16.873 14.76C16.6063 14.76 16.3498 14.7133 16.1034 14.62C15.8565 14.5267 15.6397 14.3867 15.453 14.2L13.953 12.72L10.453 16.22C10.413 16.26 10.3829 16.3035 10.3626 16.3504C10.3429 16.3968 10.333 16.4467 10.333 16.5C10.333 16.6067 10.373 16.7032 10.453 16.7896C10.533 16.8765 10.6263 16.92 10.733 16.92C10.7863 16.92 10.8397 16.9067 10.893 16.88C10.9463 16.8533 10.9863 16.8267 11.013 16.8L13.733 14.08L14.853 15.2L12.153 17.92C12.113 17.96 12.0829 18.0032 12.0626 18.0496C12.0429 18.0965 12.033 18.1467 12.033 18.2C12.033 18.3067 12.073 18.4 12.153 18.48C12.233 18.56 12.3263 18.6 12.433 18.6C12.4863 18.6 12.5397 18.5867 12.593 18.56C12.6463 18.5333 12.6863 18.5067 12.713 18.48L15.433 15.78L16.553 16.9L13.853 19.62C13.813 19.6467 13.7831 19.6867 13.7634 19.74C13.7431 19.7933 13.733 19.8467 13.733 19.9C13.733 20.0067 13.773 20.1 13.853 20.18C13.933 20.26 14.0263 20.3 14.133 20.3C14.1863 20.3 14.2365 20.2899 14.2834 20.2696C14.3298 20.2499 14.373 20.22 14.413 20.18L17.133 17.48L18.253 18.6L15.533 21.32C15.493 21.36 15.4631 21.4032 15.4434 21.4496C15.4231 21.4965 15.413 21.5467 15.413 21.6C15.413 21.7067 15.4565 21.8 15.5434 21.88C15.6298 21.96 15.7263 22 15.833 22ZM15.813 23.6C15.3197 23.6 14.8831 23.4365 14.5034 23.1096C14.1231 22.7832 13.8997 22.3733 13.833 21.88C13.3797 21.8133 12.9997 21.6267 12.693 21.32C12.3863 21.0133 12.1997 20.6333 12.133 20.18C11.6797 20.1133 11.3031 19.9235 11.0034 19.6104C10.7031 19.2968 10.5197 18.92 10.453 18.48C9.94633 18.4133 9.533 18.1933 9.213 17.82C8.893 17.4467 8.733 17.0067 8.733 16.5C8.733 16.2333 8.78313 15.9765 8.8834 15.7296C8.98313 15.4832 9.12633 15.2667 9.313 15.08L13.953 10.46L16.573 13.08C16.5997 13.12 16.6397 13.1499 16.693 13.1696C16.7463 13.1899 16.7997 13.2 16.853 13.2C16.973 13.2 17.073 13.1635 17.153 13.0904C17.233 13.0168 17.273 12.92 17.273 12.8C17.273 12.7467 17.2631 12.6933 17.2434 12.64C17.2231 12.5867 17.193 12.5467 17.153 12.52L14.293 9.66C14.1463 9.5 13.9762 9.3832 13.7826 9.3096C13.5895 9.23653 13.3863 9.2 13.173 9.2C12.973 9.2 12.773 9.23653 12.573 9.3096C12.373 9.3832 12.193 9.5 12.033 9.66L9.213 12.5C9.093 12.62 8.993 12.76 8.913 12.92C8.833 13.08 8.77967 13.24 8.753 13.4C8.72633 13.56 8.72633 13.7232 8.753 13.8896C8.77967 14.0565 8.833 14.2133 8.913 14.36L7.753 15.52C7.52633 15.2133 7.35967 14.8765 7.253 14.5096C7.14633 14.1432 7.10633 13.7733 7.133 13.4C7.15967 13.0267 7.253 12.6632 7.413 12.3096C7.573 11.9565 7.793 11.64 8.073 11.36L10.893 8.54C11.213 8.23333 11.5698 8 11.9634 7.84C12.3565 7.68 12.7597 7.6 13.173 7.6C13.5863 7.6 13.9895 7.68 14.3826 7.84C14.7762 8 15.1263 8.23333 15.433 8.54L15.653 8.76L15.873 8.54C16.193 8.23333 16.5495 8 16.9426 7.84C17.3362 7.68 17.7397 7.6 18.153 7.6C18.5663 7.6 18.9698 7.68 19.3634 7.84C19.7565 8 20.1063 8.23333 20.413 8.54L23.793 11.92C24.0997 12.2267 24.333 12.58 24.493 12.98C24.653 13.38 24.733 13.7867 24.733 14.2C24.733 14.6133 24.653 15.0165 24.493 15.4096C24.333 15.8032 24.0997 16.1533 23.793 16.46L17.233 23C17.0463 23.1867 16.8295 23.3333 16.5826 23.44C16.3362 23.5467 16.0797 23.6 15.813 23.6Z" fill="#4FAE89" />
                                    </svg>