<svg width="33" height="32" viewBox="0 0 33 32" fill="none" xmlns="http://www.w3.org/2000/svg">
                                        <rect x="0.666992" width="32" height="32" rx="16" fill="white" fill-opacity="0.08" />
                                        <g clip-path="url(#clip0_1278_818)">
                                            <path d="M7.86738 20.8C7.64072 20.8 7.45085 20.7232 7.29778 20.5696C7.14418 20.4165 7.06738 20.2267 7.06738 20V19.54C7.06738 18.9533 7.36072 18.4832 7.94738 18.1296C8.53405 17.7765 9.30738 17.6 10.2674 17.6C10.4407 17.6 10.6042 17.6067 10.7578 17.62C10.9108 17.6333 11.0607 17.6533 11.2074 17.68C11.0207 17.9467 10.8839 18.2333 10.797 18.54C10.7106 18.8467 10.6674 19.1733 10.6674 19.52V20.8H7.86738ZM12.6674 20.8C12.4407 20.8 12.2506 20.7232 12.097 20.5696C11.9439 20.4165 11.8674 20.2267 11.8674 20V19.52C11.8674 18.6533 12.3108 17.9499 13.1978 17.4096C14.0842 16.8699 15.2407 16.6 16.6674 16.6C18.1074 16.6 19.2674 16.8699 20.1474 17.4096C21.0274 17.9499 21.4674 18.6533 21.4674 19.52V20C21.4674 20.2267 21.3906 20.4165 21.237 20.5696C21.0839 20.7232 20.894 20.8 20.6674 20.8H12.6674ZM22.6674 20.8V19.52C22.6674 19.1733 22.6207 18.8467 22.5274 18.54C22.4341 18.2333 22.3007 17.9467 22.1274 17.68C22.2741 17.6533 22.4242 17.6333 22.5778 17.62C22.7309 17.6067 22.894 17.6 23.0674 17.6C24.0274 17.6 24.8007 17.7765 25.3874 18.1296C25.974 18.4832 26.2674 18.9533 26.2674 19.54V20C26.2674 20.2267 26.1906 20.4165 26.037 20.5696C25.8839 20.7232 25.694 20.8 25.4674 20.8H22.6674ZM16.6674 18.2C15.9074 18.2 15.2274 18.3032 14.6274 18.5096C14.0274 18.7165 13.674 18.9467 13.5674 19.2H19.7674C19.6474 18.9333 19.2908 18.7 18.6978 18.5C18.1042 18.3 17.4274 18.2 16.6674 18.2ZM10.2674 16.8C9.82738 16.8 9.45085 16.6432 9.13778 16.3296C8.82418 16.0165 8.66738 15.64 8.66738 15.2C8.66738 14.76 8.82418 14.3832 9.13778 14.0696C9.45085 13.7565 9.82738 13.6 10.2674 13.6C10.7074 13.6 11.0839 13.7565 11.397 14.0696C11.7106 14.3832 11.8674 14.76 11.8674 15.2C11.8674 15.64 11.7106 16.0165 11.397 16.3296C11.0839 16.6432 10.7074 16.8 10.2674 16.8ZM23.0674 16.8C22.6274 16.8 22.2506 16.6432 21.937 16.3296C21.6239 16.0165 21.4674 15.64 21.4674 15.2C21.4674 14.76 21.6239 14.3832 21.937 14.0696C22.2506 13.7565 22.6274 13.6 23.0674 13.6C23.5074 13.6 23.8842 13.7565 24.1978 14.0696C24.5108 14.3832 24.6674 14.76 24.6674 15.2C24.6674 15.64 24.5108 16.0165 24.1978 16.3296C23.8842 16.6432 23.5074 16.8 23.0674 16.8ZM16.6674 16C16.0007 16 15.434 15.7667 14.9674 15.3C14.5007 14.8333 14.2674 14.2667 14.2674 13.6C14.2674 12.9333 14.5007 12.3667 14.9674 11.9C15.434 11.4333 16.0007 11.2 16.6674 11.2C17.334 11.2 17.9007 11.4333 18.3674 11.9C18.834 12.3667 19.0674 12.9333 19.0674 13.6C19.0674 14.2667 18.834 14.8333 18.3674 15.3C17.9007 15.7667 17.334 16 16.6674 16ZM16.6674 12.8C16.4407 12.8 16.2508 12.8765 16.0978 13.0296C15.9442 13.1832 15.8674 13.3733 15.8674 13.6C15.8674 13.8267 15.9442 14.0165 16.0978 14.1696C16.2508 14.3232 16.4407 14.4 16.6674 14.4C16.894 14.4 17.0842 14.3232 17.2378 14.1696C17.3909 14.0165 17.4674 13.8267 17.4674 13.6C17.4674 13.3733 17.3909 13.1832 17.2378 13.0296C17.0842 12.8765 16.894 12.8 16.6674 12.8ZM7.86738 20.8C7.64072 20.8 7.45085 20.7232 7.29778 20.5696C7.14418 20.4165 7.06738 20.2267 7.06738 20V19.54C7.06738 18.9533 7.36072 18.4832 7.94738 18.1296C8.53405 17.7765 9.30738 17.6 10.2674 17.6C10.4407 17.6 10.6042 17.6067 10.7578 17.62C10.9108 17.6333 11.0607 17.6533 11.2074 17.68C11.0207 17.9467 10.8839 18.2333 10.797 18.54C10.7106 18.8467 10.6674 19.1733 10.6674 19.52V20.8H7.86738ZM12.6674 20.8C12.4407 20.8 12.2506 20.7232 12.097 20.5696C11.9439 20.4165 11.8674 20.2267 11.8674 20V19.52C11.8674 18.6533 12.3108 17.9499 13.1978 17.4096C14.0842 16.8699 15.2407 16.6 16.6674 16.6C18.1074 16.6 19.2674 16.8699 20.1474 17.4096C21.0274 17.9499 21.4674 18.6533 21.4674 19.52V20C21.4674 20.2267 21.3906 20.4165 21.237 20.5696C21.0839 20.7232 20.894 20.8 20.6674 20.8H12.6674ZM22.6674 20.8V19.52C22.6674 19.1733 22.6207 18.8467 22.5274 18.54C22.4341 18.2333 22.3007 17.9467 22.1274 17.68C22.2741 17.6533 22.4242 17.6333 22.5778 17.62C22.7309 17.6067 22.894 17.6 23.0674 17.6C24.0274 17.6 24.8007 17.7765 25.3874 18.1296C25.974 18.4832 26.2674 18.9533 26.2674 19.54V20C26.2674 20.2267 26.1906 20.4165 26.037 20.5696C25.8839 20.7232 25.694 20.8 25.4674 20.8H22.6674ZM16.6674 18.2C15.9074 18.2 15.2274 18.3032 14.6274 18.5096C14.0274 18.7165 13.674 18.9467 13.5674 19.2H19.7674C19.6474 18.9333 19.2908 18.7 18.6978 18.5C18.1042 18.3 17.4274 18.2 16.6674 18.2ZM10.2674 16.8C9.82738 16.8 9.45085 16.6432 9.13778 16.3296C8.82418 16.0165 8.66738 15.64 8.66738 15.2C8.66738 14.76 8.82418 14.3832 9.13778 14.0696C9.45085 13.7565 9.82738 13.6 10.2674 13.6C10.7074 13.6 11.0839 13.7565 11.397 14.0696C11.7106 14.3832 11.8674 14.76 11.8674 15.2C11.8674 15.64 11.7106 16.0165 11.397 16.3296C11.0839 16.6432 10.7074 16.8 10.2674 16.8ZM23.0674 16.8C22.6274 16.8 22.2506 16.6432 21.937 16.3296C21.6239 16.0165 21.4674 15.64 21.4674 15.2C21.4674 14.76 21.6239 14.3832 21.937 14.0696C22.2506 13.7565 22.6274 13.6 23.0674 13.6C23.5074 13.6 23.8842 13.7565 24.1978 14.0696C24.5108 14.3832 24.6674 14.76 24.6674 15.2C24.6674 15.64 24.5108 16.0165 24.1978 16.3296C23.8842 16.6432 23.5074 16.8 23.0674 16.8ZM16.6674 16C16.0007 16 15.434 15.7667 14.9674 15.3C14.5007 14.8333 14.2674 14.2667 14.2674 13.6C14.2674 12.9333 14.5007 12.3667 14.9674 11.9C15.434 11.4333 16.0007 11.2 16.6674 11.2C17.334 11.2 17.9007 11.4333 18.3674 11.9C18.834 12.3667 19.0674 12.9333 19.0674 13.6C19.0674 14.2667 18.834 14.8333 18.3674 15.3C17.9007 15.7667 17.334 16 16.6674 16ZM16.6674 12.8C16.4407 12.8 16.2508 12.8765 16.0978 13.0296C15.9442 13.1832 15.8674 13.3733 15.8674 13.6C15.8674 13.8267 15.9442 14.0165 16.0978 14.1696C16.2508 14.3232 16.4407 14.4 16.6674 14.4C16.894 14.4 17.0842 14.3232 17.2378 14.1696C17.3909 14.0165 17.4674 13.8267 17.4674 13.6C17.4674 13.3733 17.3909 13.1832 17.2378 13.0296C17.0842 12.8765 16.894 12.8 16.6674 12.8Z" fill="#D5963B" />
                                        </g>
                                        <defs>
                                            <clipPath id="clip0_1278_818">
                                                <rect width="19.2" height="19.2" fill="white" transform="translate(7.06738 6.4)" />
                                            </clipPath>
                                        </defs>
                                    </svg>