<svg width="40" height="41" viewBox="0 0 40 41" fill="none" xmlns="http://www.w3.org/2000/svg">
                        <g clip-path="url(#clip0_1119_428)">
                            <path d="M20 24.2188C22.2652 24.2188 24.1016 22.3824 24.1016 20.1172C24.1016 17.852 22.2652 16.0156 20 16.0156C17.7348 16.0156 15.8984 17.852 15.8984 20.1172C15.8984 22.3824 17.7348 24.2188 20 24.2188Z" fill="white" />
                            <path d="M20 0.585938C9.2132 0.585938 0.46875 9.33039 0.46875 20.1172C0.46875 30.904 9.2132 39.6484 20 39.6484C30.7868 39.6484 39.5312 30.904 39.5312 20.1172C39.5312 9.33039 30.7868 0.585938 20 0.585938ZM32.067 25.0813C31.9733 26.9381 31.4515 28.7692 30.0983 30.108C28.732 31.4596 26.8922 31.9632 25.0174 32.056H14.9827C13.1077 31.9632 11.2681 31.4599 9.9018 30.108C8.54852 28.7692 8.0268 26.9381 7.93305 25.0813V15.1531C8.0268 13.2963 8.54859 11.4652 9.9018 10.1262C11.2681 8.77469 13.1079 8.27109 14.9827 8.17836H25.0173C26.8923 8.27109 28.7319 8.77445 30.0982 10.1262C31.4515 11.4652 31.9732 13.2963 32.067 15.1531L32.067 25.0813Z" fill="white" />
                            <path d="M24.8906 10.4404C22.4464 10.3734 17.5542 10.3734 15.11 10.4404C13.838 10.4753 12.396 10.792 11.4898 11.7599C10.5481 12.7661 10.1922 13.9817 10.1561 15.3417C10.0927 17.7285 10.1561 24.8926 10.1561 24.8926C10.1975 26.2524 10.5481 27.4681 11.4898 28.4743C12.396 29.4426 13.838 29.7589 15.11 29.7938C17.5542 29.8609 22.4464 29.8609 24.8906 29.7938C26.1625 29.7589 27.6045 29.4423 28.5107 28.4743C29.4525 27.4681 29.8083 26.2525 29.8444 24.8926V15.3417C29.8083 13.9817 29.4525 12.7661 28.5107 11.7599C27.6042 10.7917 26.1622 10.4753 24.8906 10.4404ZM20 26.4746C18.7426 26.4746 17.5134 26.1017 16.468 25.4031C15.4225 24.7046 14.6076 23.7117 14.1265 22.55C13.6453 21.3883 13.5194 20.1101 13.7647 18.8769C14.01 17.6436 14.6155 16.5109 15.5046 15.6218C16.3937 14.7327 17.5265 14.1272 18.7597 13.8819C19.9929 13.6366 21.2712 13.7625 22.4328 14.2436C23.5945 14.7248 24.5874 15.5397 25.286 16.5851C25.9845 17.6306 26.3574 18.8597 26.3574 20.1171C26.3574 21.8032 25.6876 23.4203 24.4953 24.6125C23.3031 25.8048 21.686 26.4746 20 26.4746ZM26.3844 15.072C26.1329 15.0719 25.8871 14.9973 25.6781 14.8575C25.469 14.7178 25.3061 14.5192 25.2099 14.2868C25.1137 14.0545 25.0886 13.7989 25.1377 13.5522C25.1868 13.3056 25.3079 13.0791 25.4858 12.9013C25.6636 12.7235 25.8901 12.6024 26.1368 12.5534C26.3834 12.5044 26.6391 12.5296 26.8714 12.6258C27.1037 12.7221 27.3022 12.885 27.4419 13.0941C27.5816 13.3032 27.6562 13.549 27.6562 13.8005C27.6562 13.9675 27.6233 14.1329 27.5594 14.2871C27.4955 14.4414 27.4018 14.5816 27.2837 14.6997C27.1656 14.8177 27.0254 14.9114 26.8711 14.9753C26.7168 15.0392 26.5514 15.072 26.3844 15.072Z" fill="white" />
                        </g>
                        <defs>
                            <clipPath id="clip0_1119_428">
                                <rect width="40" height="40" fill="white" transform="translate(0 0.117188)" />
                            </clipPath>
                        </defs>
                    </svg>