<svg width="40" height="41" viewBox="0 0 40 41" fill="none" xmlns="http://www.w3.org/2000/svg">
                        <g clip-path="url(#clip0_1119_436)">
                            <path d="M20 0.117188C16.0444 0.117188 12.1776 1.29017 8.8886 3.4878C5.59962 5.68542 3.03617 8.809 1.52242 12.4635C0.00866564 16.118 -0.387401 20.1394 0.384303 24.019C1.15601 27.8986 3.06082 31.4623 5.85787 34.2593C8.65492 37.0564 12.2186 38.9612 16.0982 39.7329C19.9778 40.5046 23.9992 40.1085 27.6537 38.5948C31.3082 37.081 34.4318 34.5176 36.6294 31.2286C38.827 27.9396 40 24.0728 40 20.1172C40 14.8129 37.8929 9.72578 34.1421 5.97505C30.3914 2.22432 25.3043 0.117188 20 0.117188ZM14.1842 30.6435H9.82106V16.5882H14.1842V30.6435ZM12 14.6698C11.4979 14.6719 11.0064 14.5251 10.5877 14.2479C10.169 13.9707 9.84185 13.5756 9.64764 13.1125C9.45344 12.6494 9.40089 12.1392 9.49662 11.6462C9.59235 11.1533 9.83208 10.6998 10.1855 10.3431C10.5389 9.98635 10.9901 9.74242 11.4822 9.64209C11.9742 9.54177 12.4849 9.58957 12.9498 9.77944C13.4146 9.96932 13.8128 10.2927 14.0939 10.7089C14.3749 11.125 14.5264 11.615 14.529 12.1172C14.5304 12.7905 14.2651 13.437 13.7912 13.9154C13.3173 14.3937 12.6733 14.665 12 14.6698ZM30.5263 30.6435H26.1658V23.8014C26.1658 22.1698 26.1342 20.0777 23.8974 20.0777C21.6605 20.0777 21.2658 21.8514 21.2658 23.683V30.6435H16.9211V16.5882H21.1079V18.504H21.1684C21.75 17.3988 23.1737 16.233 25.2974 16.233C29.7132 16.233 30.5263 19.1435 30.5263 22.9225V30.6435Z" fill="white" />
                        </g>
                        <defs>
                            <clipPath id="clip0_1119_436">
                                <rect width="40" height="40" fill="white" transform="translate(0 0.117188)" />
                            </clipPath>
                        </defs>
                    </svg>