<svg width="176" height="61" viewBox="0 0 176 61" fill="none" xmlns="http://www.w3.org/2000/svg">
                        <path d="M57.9337 40.9741C56.0372 40.9741 54.3105 40.6635 52.7494 40.0383C51.1925 39.413 49.8508 38.5062 48.7328 37.3095C47.6148 36.1128 46.7494 34.6387 46.1407 32.8871C45.5278 31.1315 45.2256 29.1273 45.2256 26.8664C45.2256 24.6056 45.5693 22.5973 46.2566 20.8458C46.944 19.0901 47.8757 17.6159 49.0434 16.4234C50.2111 15.2267 51.5775 14.3199 53.1345 13.6946C54.6914 13.0694 56.356 12.7588 58.1241 12.7588C59.2422 12.7588 60.2484 12.8375 61.1469 12.9948C62.0455 13.1522 62.8239 13.3344 63.4864 13.5414C64.149 13.7484 64.6873 13.9555 65.1055 14.1667C65.5196 14.3737 65.8053 14.5311 65.9627 14.6346L64.8695 17.7526C64.6376 17.5952 64.298 17.4296 63.855 17.2474C63.4119 17.0652 62.9109 16.883 62.356 16.7008C61.797 16.5186 61.1883 16.3696 60.5258 16.2536C59.8633 16.1377 59.1924 16.0797 58.5175 16.0797C57.0889 16.0797 55.8012 16.3281 54.6583 16.8209C53.5155 17.3137 52.5382 18.03 51.7349 18.9658C50.9274 19.9016 50.3105 21.0404 49.884 22.3778C49.4533 23.7153 49.2422 25.2184 49.2422 26.8789C49.2422 28.5393 49.4285 29.9596 49.8053 31.2847C50.1821 32.6097 50.7453 33.7484 51.4989 34.6967C52.2525 35.6449 53.1924 36.3778 54.3229 36.8996C55.4533 37.4213 56.7701 37.678 58.2774 37.678C60.0165 37.678 61.4616 37.4958 62.6045 37.1314C63.7473 36.7671 64.6045 36.4441 65.1759 36.1584L66.149 39.2764C65.9668 39.4047 65.6438 39.5704 65.1759 39.765C64.708 39.9596 64.1242 40.1501 63.4202 40.3281C62.7204 40.5103 61.9005 40.6636 60.9647 40.7961C60.0289 40.9244 59.0144 40.9907 57.9254 40.9907L57.9337 40.9741Z" fill="white" />
                        <path d="M85.6066 39.8025C84.7743 40.0095 83.677 40.2331 82.3147 40.465C80.9523 40.6969 79.3705 40.817 77.5776 40.817C76.0165 40.817 74.708 40.5892 73.6397 40.1337C72.5755 39.6782 71.7142 39.0364 71.0683 38.2041C70.4182 37.3718 69.9503 36.3905 69.6645 35.26C69.3788 34.1296 69.2339 32.8749 69.2339 31.5002V20.1172H72.8571V30.7176C72.8571 33.1855 73.2463 34.9536 74.0248 36.0178C74.8033 37.082 76.1159 37.6162 77.9627 37.6162C78.3519 37.6162 78.7536 37.6037 79.1718 37.5789C79.5859 37.554 79.9751 37.5209 80.3395 37.4795C80.7039 37.4422 81.0352 37.4008 81.3333 37.3635C81.6314 37.3263 81.8467 37.2807 81.9751 37.2269V20.1172H85.5983V39.8025H85.6066Z" fill="white" />
                        <path d="M97.9254 40.7798C95.6894 40.7259 94.1076 40.2456 93.1718 39.3388C92.236 38.4278 91.7681 37.0117 91.7681 35.0903V10.7674L95.3913 10.1421V34.5023C95.3913 35.0986 95.4409 35.5955 95.5486 35.9848C95.6521 36.374 95.8219 36.6845 96.0538 36.9206C96.2857 37.1566 96.6004 37.3305 96.9896 37.4464C97.3788 37.5624 97.8591 37.6618 98.4306 37.7404L97.9254 40.7798Z" fill="white" />
                        <path d="M105.876 20.1214H113.553V23.1608H105.876V32.5148C105.876 33.5293 105.954 34.3658 106.112 35.0283C106.269 35.6908 106.501 36.2125 106.811 36.5893C107.122 36.9661 107.511 37.2312 107.979 37.3885C108.447 37.5459 108.994 37.6204 109.615 37.6204C110.708 37.6204 111.582 37.4962 112.244 37.2519C112.907 37.0034 113.366 36.8295 113.627 36.726L114.327 39.7281C113.963 39.9103 113.325 40.138 112.418 40.4113C111.507 40.6846 110.468 40.8212 109.3 40.8212C107.921 40.8212 106.787 40.6473 105.888 40.2953C104.994 39.9434 104.269 39.4175 103.727 38.7177C103.18 38.0179 102.799 37.1525 102.575 36.1256C102.356 35.0987 102.244 33.9103 102.244 32.5604V14.4734L105.867 13.8481V20.1256L105.876 20.1214Z" fill="white" />
                        <path d="M134.29 39.8025C133.457 40.0095 132.36 40.2331 130.998 40.465C129.635 40.6969 128.054 40.817 126.261 40.817C124.7 40.817 123.391 40.5892 122.323 40.1337C121.259 39.6782 120.397 39.0364 119.751 38.2041C119.101 37.3718 118.633 36.3905 118.348 35.26C118.062 34.1296 117.917 32.8749 117.917 31.5002V20.1172H121.54V30.7176C121.54 33.1855 121.929 34.9536 122.708 36.0178C123.486 37.082 124.799 37.6162 126.646 37.6162C127.035 37.6162 127.437 37.6037 127.855 37.5789C128.269 37.554 128.658 37.5209 129.023 37.4795C129.387 37.4422 129.718 37.4008 130.016 37.3635C130.314 37.3263 130.53 37.2807 130.658 37.2269V20.1172H134.281V39.8025H134.29Z" fill="white" />
                        <path d="M148.008 19.6904C148.319 19.6904 148.679 19.7111 149.081 19.7484C149.482 19.7857 149.88 19.8395 150.269 19.9058C150.658 19.972 151.014 20.0341 151.341 20.1004C151.664 20.1666 151.905 20.2246 152.062 20.2743L151.437 23.4296C151.151 23.3261 150.675 23.2018 150.012 23.061C149.35 22.9202 148.497 22.8457 147.457 22.8457C146.782 22.8457 146.112 22.9161 145.449 23.061C144.787 23.206 144.352 23.3012 144.145 23.355V40.3902H140.521V20.9782C141.379 20.6677 142.443 20.3737 143.718 20.1004C144.989 19.8271 146.422 19.6904 148.004 19.6904H148.008Z" fill="white" />
                        <path d="M4.37264 25.2062C4.51343 24.7673 4.67079 24.3408 4.8447 23.9226C7.56106 17.2973 14.0041 12.8625 21.3664 12.8625C26.737 12.8625 31.7764 15.2476 35.1925 19.4008C35.6604 19.9681 36.4389 20.1834 37.1263 19.935C37.822 19.6865 38.2815 19.0281 38.2815 18.2952V8.96605C38.2857 8.56025 38.1491 8.16687 37.8882 7.85217C33.8509 2.93706 27.8426 0.117188 21.412 0.117188C9.60661 0.117188 0.00414483 9.72379 0.00414483 21.5292C0.00414483 23.082 0.169756 24.6265 0.501019 26.1337C0.169756 27.641 0 29.1938 0 30.7466C0 42.5271 9.58591 52.113 21.3664 52.113C27.6894 52.113 33.677 49.3056 37.7971 44.4153C38.058 44.1048 38.2029 43.7072 38.207 43.3014V34.1876C38.2112 33.9391 38.1408 33.7072 38.0455 33.4878C37.8592 33.0654 37.5197 32.7176 37.0683 32.5519C36.6542 32.3987 36.2195 32.4319 35.8302 32.5892C35.5694 32.6927 35.325 32.8418 35.1387 33.0654C31.7226 37.1234 26.7205 39.4547 21.4161 39.4547C20.1822 39.4547 18.9482 39.3304 17.7391 39.0778C16.0952 38.7383 14.5051 38.1669 13.0186 37.3801C11.5528 36.6058 10.1988 35.6286 9.00621 34.4857C8.36439 33.8687 7.79709 33.1814 7.28777 32.4526C7.08902 32.1669 6.31884 30.6099 5.90477 30.7093C5.71429 30.7549 5.82192 31.3387 5.82606 31.4712C5.84263 31.7859 5.8675 32.1006 5.90477 32.4153C6.01657 33.405 6.2319 34.3863 6.53832 35.3346C6.69153 35.7983 6.86544 36.258 7.06006 36.7093C7.75157 38.2828 9.20912 39.2849 10.6708 40.0758C11.1429 40.3325 11.6232 40.5727 12.1035 40.8087C13.9379 41.7155 15.8758 42.3077 17.8882 42.6555C19.0476 42.8542 20.2319 42.9412 21.4078 42.9412C25.6273 42.9412 29.6853 41.699 33.1346 39.4422C33.677 39.0861 34.207 38.7093 34.7205 38.3035V41.2103V42.643C31.2836 46.4567 26.4513 48.6348 21.3623 48.6348C12.7536 48.6348 5.56107 42.5105 3.87162 34.3946C3.84678 34.2745 3.82196 34.1586 3.79712 34.0385C3.77227 33.8977 3.73497 33.7611 3.71013 33.6203C3.71841 33.6327 3.73086 33.6451 3.73914 33.6617C3.57351 32.6969 3.46998 31.7155 3.46998 30.701C3.46998 29.1317 3.69772 27.6161 4.0911 26.1669C4.0911 26.1586 4.08695 26.1503 4.08281 26.142C4.10765 26.0468 4.14076 25.9598 4.16975 25.8646C4.23186 25.6451 4.29816 25.4298 4.36855 25.2186L4.37264 25.2062ZM3.71427 18.6638C5.08901 10.1337 12.501 3.59958 21.4078 3.59958C26.5838 3.59958 31.4286 5.77764 34.7909 9.59131V14.113C31.0228 11.0654 26.3105 9.37183 21.3623 9.37183C14.1159 9.37183 7.59833 12.966 3.71427 18.6596V18.6638Z" fill="white" />
                        <path d="M143.756 51.0074V55.8272L143.636 55.9018C143.404 56.0426 143.135 56.1709 142.841 56.2786C142.555 56.3821 142.253 56.4732 141.946 56.5477C141.636 56.6223 141.317 56.6761 140.998 56.7092C140.679 56.7465 140.377 56.7631 140.104 56.7631C139.309 56.7631 138.592 56.6264 137.967 56.3614C137.342 56.0964 136.804 55.732 136.373 55.2765C135.942 54.821 135.607 54.2869 135.379 53.6865C135.155 53.0902 135.04 52.4525 135.04 51.79C135.04 51.0902 135.164 50.4318 135.408 49.8314C135.652 49.2268 135.992 48.6968 136.427 48.2496C136.857 47.8066 137.383 47.4504 137.988 47.1978C138.592 46.9453 139.259 46.8169 139.975 46.8169C140.833 46.8169 141.545 46.9287 142.1 47.144C142.654 47.3635 143.126 47.674 143.507 48.0591L143.673 48.2289L142.476 49.5126L142.294 49.3386C141.951 49.0115 141.582 48.7796 141.205 48.6513C140.385 48.378 139.404 48.3904 138.683 48.7217C138.298 48.8956 137.967 49.1357 137.694 49.4297C137.421 49.7279 137.205 50.0798 137.06 50.4856C136.907 50.8914 136.832 51.3304 136.832 51.79C136.832 52.2496 136.915 52.7092 137.081 53.1109C137.247 53.5167 137.474 53.8728 137.764 54.1709C138.054 54.4649 138.398 54.701 138.791 54.8707C139.528 55.1896 140.476 55.1689 141.251 55.0074C141.553 54.9453 141.814 54.8583 142.037 54.7507V52.6471H140.046V51.0074H143.756Z" fill="white" />
                        <path d="M149.744 50.0137L149.673 51.7446L149.371 51.6618C149.284 51.6369 149.201 51.6203 149.114 51.6038C149.036 51.5872 148.957 51.5831 148.878 51.5831C148.386 51.5831 148.025 51.7115 147.777 51.9723C147.524 52.2373 147.4 52.6721 147.4 53.2642V56.5355H145.76V50.0179H147.4V50.4858C147.516 50.3822 147.644 50.287 147.781 50.2042C147.955 50.1007 148.145 50.0179 148.352 49.9599C148.771 49.8357 149.214 49.8357 149.566 49.9558L149.744 50.0137Z" fill="white" />
                        <path d="M157.139 51.9433C156.961 51.5375 156.717 51.1731 156.406 50.8667C156.1 50.5561 155.731 50.3077 155.313 50.1338C154.477 49.7777 153.441 49.7777 152.605 50.1338C152.187 50.3077 151.818 50.5561 151.512 50.8667C151.201 51.1731 150.953 51.5375 150.779 51.9433C150.601 52.3574 150.51 52.8046 150.51 53.2766C150.51 53.7487 150.601 54.1959 150.779 54.6141C150.953 55.0241 151.201 55.3884 151.512 55.6949C151.818 55.9971 152.187 56.2414 152.605 56.4195C153.023 56.5975 153.479 56.6887 153.959 56.6887C154.439 56.6887 154.895 56.5975 155.313 56.4195C155.731 56.2414 156.1 55.9971 156.406 55.6949C156.717 55.3884 156.965 55.0241 157.139 54.6141C157.317 54.1959 157.408 53.7487 157.408 53.2766C157.408 52.8046 157.317 52.3574 157.139 51.9433ZM153.23 54.9826C153.019 54.8916 152.837 54.7673 152.692 54.61C152.547 54.4568 152.431 54.2621 152.352 54.0344C152.27 53.8067 152.228 53.5499 152.228 53.2766C152.228 53.0034 152.27 52.7466 152.352 52.5147C152.431 52.2911 152.547 52.0965 152.692 51.9392C152.837 51.7859 153.019 51.6576 153.23 51.5665C153.446 51.4754 153.69 51.4298 153.959 51.4298C154.228 51.4298 154.472 51.4754 154.688 51.5665C154.899 51.6576 155.081 51.7859 155.226 51.9392C155.371 52.0965 155.487 52.2911 155.566 52.5147C155.648 52.7466 155.69 53.0034 155.69 53.2766C155.69 53.5499 155.648 53.8067 155.566 54.0344C155.487 54.2621 155.371 54.4568 155.226 54.61C155.081 54.7673 154.899 54.8915 154.688 54.9868C154.261 55.169 153.657 55.169 153.23 54.9826Z" fill="white" />
                        <path d="M164.75 50.0176V56.5352H163.11V56.0714C162.99 56.175 162.853 56.2702 162.704 56.3571C162.311 56.5766 161.855 56.6884 161.35 56.6884C161.027 56.6884 160.721 56.6387 160.431 56.5393C160.137 56.4399 159.876 56.2826 159.648 56.0756C159.425 55.8644 159.247 55.5911 159.114 55.2681C158.982 54.9493 158.919 54.5683 158.919 54.1377V50.0176H160.559V53.823C160.559 54.0673 160.592 54.2826 160.654 54.4524C160.717 54.6139 160.799 54.7464 160.899 54.8416C161.002 54.941 161.114 55.0114 161.247 55.0528C161.574 55.1646 161.955 55.1356 162.253 55.0238C162.423 54.9617 162.563 54.8623 162.692 54.7257C162.82 54.589 162.919 54.4068 162.994 54.1874C163.068 53.9596 163.11 53.6822 163.11 53.3633V50.0176H164.75Z" fill="white" />
                        <path d="M173.139 51.9514C172.986 51.5373 172.762 51.1687 172.472 50.8582C172.186 50.5476 171.83 50.2992 171.424 50.1253C170.658 49.7981 169.656 49.7443 168.77 50.1543C168.555 50.2536 168.36 50.3779 168.191 50.5186V50.0176H166.551V60.117H168.191V56.0425C168.352 56.175 168.534 56.2909 168.737 56.3903C169.59 56.7961 170.638 56.763 171.424 56.4234C171.83 56.2536 172.182 56.0093 172.472 55.6988C172.762 55.3924 172.986 55.028 173.139 54.6139C173.296 54.2039 173.371 53.7526 173.371 53.2764C173.371 52.8002 173.296 52.3613 173.139 51.9514ZM169.197 54.9824C168.986 54.8913 168.803 54.7671 168.658 54.6097C168.513 54.4565 168.398 54.2619 168.315 54.0342C168.232 53.8064 168.191 53.5497 168.191 53.2764C168.191 53.0031 168.232 52.7464 168.315 52.5145C168.398 52.2909 168.513 52.0963 168.658 51.9389C168.803 51.7857 168.986 51.6574 169.197 51.5663C169.408 51.4752 169.652 51.4296 169.921 51.4296C170.191 51.4296 170.439 51.4752 170.65 51.5663C170.861 51.6574 171.044 51.7857 171.188 51.9389C171.333 52.0963 171.449 52.2909 171.532 52.5145C171.615 52.7464 171.656 53.0031 171.656 53.2764C171.656 53.5497 171.615 53.8064 171.532 54.0342C171.449 54.2619 171.333 54.4565 171.188 54.6097C171.044 54.7671 170.861 54.8913 170.65 54.9865C170.224 55.1687 169.623 55.1688 169.197 54.9824Z" fill="white" />
                        <path d="M175.805 30.2537V30.2702C175.805 33.1522 174.716 35.8147 172.741 37.7568C172.7 37.7982 172.658 37.8396 172.613 37.8769C172.48 37.9887 172.327 38.0673 172.149 38.1253C172.108 38.1377 172.058 38.1501 172.008 38.1584L171.88 38.1791C171.801 38.1874 171.764 38.1874 171.718 38.1874C170.965 38.1874 170.352 37.5746 170.352 36.8209C170.352 36.7754 170.352 36.7298 170.356 36.6884C170.36 36.6429 170.368 36.5973 170.377 36.5518C170.418 36.3075 170.526 36.0756 170.683 35.8934C170.716 35.8561 170.745 35.8272 170.778 35.7982C172.157 34.3613 172.915 32.3903 172.915 30.2495C172.915 28.1087 172.128 26.0922 170.7 24.6512C169.288 23.2309 167.346 22.4483 165.234 22.4483C163.561 22.4483 162 22.9286 160.72 23.8396L160.426 24.0466L160.393 23.6864C160.389 23.6491 160.385 23.6077 160.381 23.5704C160.377 23.529 160.368 23.5083 160.364 23.4876C160.352 23.4131 160.344 23.3758 160.327 23.3427C160.294 23.2143 160.252 23.1149 160.203 23.0238C160.182 22.9824 160.17 22.9576 160.149 22.9327C160.07 22.792 159.979 22.676 159.872 22.5725C159.83 22.5311 159.793 22.498 159.751 22.4648C159.702 22.4193 159.656 22.3862 159.615 22.3613C159.573 22.3282 159.544 22.3116 159.511 22.2951C159.474 22.2744 159.453 22.2619 159.437 22.2537L159.399 22.233C159.375 22.2205 159.35 22.2081 159.329 22.1998C159.255 22.1667 159.205 22.1501 159.151 22.1336L159.089 22.1129C159.089 22.1129 159.085 22.1087 159.081 22.1087L158.58 22.0259L158.994 21.7361C160.77 20.4938 162.923 19.8354 165.226 19.8354C168.145 19.8354 170.824 20.8914 172.774 22.8127C174.729 24.7423 175.805 27.3841 175.805 30.2537Z" fill="white" />
                        <path d="M171.694 38.6555L171.317 38.9123C169.569 40.0841 167.462 40.7052 165.23 40.7052C162.315 40.7052 159.636 39.6452 157.694 37.7197C155.752 35.7943 154.679 33.1483 154.679 30.2622C154.679 30.1504 154.679 30.0427 154.683 29.9309C154.704 29.2477 154.783 28.5686 154.923 27.9102C155.064 27.2601 155.267 26.6224 155.524 26.0179C155.785 25.4133 156.099 24.8336 156.468 24.2953C156.65 24.022 156.853 23.7612 157.06 23.5127L157.151 23.405C157.338 23.1773 157.532 22.9454 157.776 22.7674L157.897 22.6763C157.959 22.6349 158.004 22.6017 158.066 22.5727C158.104 22.5562 158.162 22.5313 158.22 22.5189C158.261 22.5065 158.319 22.4899 158.385 22.4816C158.439 22.4692 158.518 22.4609 158.605 22.4609C159.367 22.4609 159.988 23.0821 159.988 23.844C159.988 23.9061 159.984 23.9765 159.971 24.0386C159.963 24.1173 159.95 24.1794 159.93 24.2374C159.913 24.2953 159.888 24.3616 159.859 24.4237C159.839 24.4775 159.81 24.5313 159.772 24.5852C159.747 24.6349 159.71 24.6887 159.665 24.7342L159.619 24.7963C158.282 26.2249 157.545 28.167 157.549 30.2622C157.549 32.4527 158.331 34.4485 159.756 35.8812C161.164 37.3057 163.11 38.0924 165.234 38.0924C166.841 38.0924 168.356 37.6369 169.619 36.7798L169.942 36.5562L169.955 37.0572C169.959 37.0945 169.963 37.1317 169.971 37.1649C169.988 37.2353 170 37.2891 170.017 37.3429C170.054 37.463 170.099 37.5707 170.153 37.6659C170.182 37.7156 170.211 37.7653 170.244 37.815C170.273 37.8605 170.307 37.9061 170.344 37.9516C170.584 38.2415 170.899 38.4444 171.255 38.5396L171.694 38.6555Z" fill="white" />
                    </svg>