<svg width="176" height="60" viewBox="0 0 176 60" fill="none" xmlns="http://www.w3.org/2000/svg">
<path d="M57.938 40.8572C56.0416 40.8572 54.3149 40.5466 52.7538 39.9213C51.1968 39.2961 49.8552 38.3892 48.7372 37.1926C47.6192 35.9959 46.7538 34.5218 46.1451 32.7702C45.5323 31.0145 45.23 29.0104 45.23 26.7495C45.23 24.4886 45.5737 22.4804 46.261 20.7288C46.9484 18.9731 47.8801 17.499 49.0478 16.3065C50.2155 15.1098 51.5819 14.2029 53.1389 13.5777C54.6958 12.9524 56.3604 12.6418 58.1285 12.6418C59.2465 12.6418 60.2527 12.7205 61.1513 12.8779C62.0498 13.0352 62.8283 13.2174 63.4908 13.4245C64.1534 13.6315 64.6917 13.8385 65.1099 14.0497C65.524 14.2568 65.8097 14.4141 65.967 14.5176L64.8739 17.6356C64.642 17.4783 64.3024 17.3127 63.8594 17.1305C63.4163 16.9483 62.9153 16.7661 62.3604 16.5839C61.8014 16.4017 61.1927 16.2526 60.5302 16.1367C59.8677 16.0207 59.1968 15.9628 58.5219 15.9628C57.0933 15.9628 55.8055 16.2112 54.6627 16.704C53.5198 17.1967 52.5426 17.9131 51.7393 18.8489C50.9318 19.7847 50.3149 20.9234 49.8884 22.2609C49.4577 23.5984 49.2465 25.1015 49.2465 26.7619C49.2465 28.4224 49.4329 29.8427 49.8097 31.1677C50.1865 32.4928 50.7496 33.6315 51.5033 34.5797C52.2569 35.528 53.1969 36.2609 54.3273 36.7826C55.4577 37.3044 56.7745 37.5611 58.2817 37.5611C60.0209 37.5611 61.466 37.3789 62.6089 37.0145C63.7517 36.6501 64.6089 36.3271 65.1803 36.0414L66.1534 39.1594C65.9712 39.2878 65.6482 39.4534 65.1803 39.6481C64.7124 39.8427 64.1285 40.0332 63.4246 40.2112C62.7248 40.3934 61.9049 40.5466 60.9691 40.6791C60.0333 40.8075 59.0188 40.8737 57.9298 40.8737L57.938 40.8572Z" fill="#0B2032"/>
<path d="M85.611 39.6853C84.7787 39.8923 83.6813 40.1159 82.319 40.3478C80.9567 40.5797 79.3749 40.6998 77.582 40.6998C76.0209 40.6998 74.7124 40.472 73.6441 40.0165C72.5799 39.5611 71.7186 38.9192 71.0726 38.087C70.4225 37.2547 69.9546 36.2733 69.6689 35.1429C69.3832 34.0124 69.2383 32.7578 69.2383 31.383V20H72.8615V30.6004C72.8615 33.0683 73.2507 34.8364 74.0292 35.9006C74.8076 36.9648 76.1203 37.499 77.9671 37.499C78.3563 37.499 78.7579 37.4865 79.1762 37.4617C79.5902 37.4368 79.9795 37.4037 80.3439 37.3623C80.7083 37.325 81.0395 37.2836 81.3377 37.2464C81.6358 37.2091 81.8511 37.1636 81.9795 37.1097V20H85.6027V39.6853H85.611Z" fill="#0B2032"/>
<path d="M97.9293 40.6625C95.6933 40.6086 94.1115 40.1283 93.1757 39.2215C92.2399 38.3105 91.772 36.8943 91.772 34.973V10.65L95.3952 10.0248V34.385C95.3952 34.9813 95.4449 35.4782 95.5525 35.8674C95.656 36.2567 95.8258 36.5672 96.0577 36.8033C96.2896 37.0393 96.6043 37.2132 96.9935 37.3291C97.3827 37.4451 97.8631 37.5445 98.4345 37.6231L97.9293 40.6625Z" fill="#0B2032"/>
<path d="M105.88 20.0041H113.557V23.0435H105.88V32.3975C105.88 33.412 105.959 34.2484 106.116 34.911C106.273 35.5735 106.505 36.0952 106.816 36.472C107.126 36.8488 107.516 37.1138 107.984 37.2712C108.451 37.4285 108.998 37.5031 109.619 37.5031C110.712 37.5031 111.586 37.3789 112.249 37.1346C112.911 36.8861 113.371 36.7122 113.632 36.6087L114.331 39.6107C113.967 39.7929 113.329 40.0207 112.422 40.294C111.511 40.5673 110.472 40.7039 109.304 40.7039C107.926 40.7039 106.791 40.53 105.892 40.178C104.998 39.8261 104.273 39.3002 103.731 38.6004C103.184 37.9006 102.803 37.0352 102.58 36.0083C102.36 34.9813 102.249 33.7929 102.249 32.443V14.3561L105.872 13.7308V20.0083L105.88 20.0041Z" fill="#0B2032"/>
<path d="M134.294 39.6853C133.462 39.8923 132.364 40.1159 131.002 40.3478C129.64 40.5797 128.058 40.6998 126.265 40.6998C124.704 40.6998 123.395 40.472 122.327 40.0165C121.263 39.5611 120.402 38.9192 119.756 38.087C119.106 37.2547 118.638 36.2733 118.352 35.1429C118.066 34.0124 117.921 32.7578 117.921 31.383V20H121.545V30.6004C121.545 33.0683 121.934 34.8364 122.712 35.9006C123.491 36.9648 124.803 37.499 126.65 37.499C127.039 37.499 127.441 37.4865 127.859 37.4617C128.273 37.4368 128.663 37.4037 129.027 37.3623C129.391 37.325 129.723 37.2836 130.021 37.2464C130.319 37.2091 130.534 37.1636 130.663 37.1097V20H134.286V39.6853H134.294Z" fill="#0B2032"/>
<path d="M148.012 19.5735C148.323 19.5735 148.683 19.5942 149.085 19.6315C149.487 19.6687 149.884 19.7226 150.273 19.7888C150.663 19.8551 151.019 19.9172 151.346 19.9834C151.669 20.0497 151.909 20.1077 152.066 20.1574L151.441 23.3126C151.155 23.2091 150.679 23.0849 150.017 22.9441C149.354 22.8033 148.501 22.7288 147.462 22.7288C146.787 22.7288 146.116 22.7992 145.453 22.9441C144.791 23.089 144.356 23.1843 144.149 23.2381V40.2733H140.526V20.8613C141.383 20.5507 142.447 20.2567 143.723 19.9834C144.994 19.7101 146.427 19.5735 148.008 19.5735H148.012Z" fill="#0B2032"/>
<path d="M4.37267 25.089C4.51346 24.6501 4.67081 24.2236 4.84472 23.8054C7.56107 17.1801 14.0041 12.7453 21.3665 12.7453C26.7371 12.7453 31.7764 15.1304 35.1925 19.2836C35.6604 19.8509 36.4389 20.0662 37.1263 19.8178C37.8219 19.5693 38.2816 18.911 38.2816 18.178V8.84886C38.2857 8.44306 38.1491 8.04968 37.8882 7.73498C33.8509 2.81987 27.8426 0 21.412 0C9.60662 0 0.00413851 9.60661 0.00413851 21.412C0.00413851 22.9648 0.169769 24.5093 0.501032 26.0165C0.169769 27.5238 0 29.0766 0 30.6294C0 42.4099 9.58592 51.9958 21.3665 51.9958C27.6894 51.9958 33.677 49.1884 37.7971 44.2981C38.058 43.9876 38.2029 43.59 38.207 43.1842V34.0704C38.2112 33.8219 38.1408 33.59 38.0455 33.3706C37.8592 32.9482 37.5197 32.6004 37.0683 32.4348C36.6542 32.2815 36.2195 32.3147 35.8302 32.472C35.5694 32.5756 35.325 32.7246 35.1387 32.9482C31.7226 37.0062 26.7205 39.3375 21.4161 39.3375C20.1822 39.3375 18.9482 39.2132 17.7391 38.9606C16.0952 38.6211 14.5052 38.0497 13.0186 37.2629C11.5528 36.4886 10.1988 35.5114 9.00621 34.3685C8.36439 33.7515 7.7971 33.0642 7.28778 32.3354C7.08902 32.0497 6.31884 30.4928 5.90476 30.5921C5.71428 30.6377 5.82194 31.2215 5.82608 31.354C5.84265 31.6687 5.86749 31.9834 5.90476 32.2981C6.01656 33.2878 6.23188 34.2691 6.5383 35.2174C6.69151 35.6811 6.86542 36.1408 7.06004 36.5921C7.75155 38.1656 9.20911 39.1677 10.6708 39.9586C11.1429 40.2153 11.6232 40.4555 12.1035 40.6915C13.9379 41.5983 15.8758 42.1905 17.8882 42.5383C19.0476 42.737 20.2319 42.824 21.4079 42.824C25.6273 42.824 29.6853 41.5818 33.1346 39.325C33.677 38.9689 34.207 38.5921 34.7205 38.1863V41.0932V42.5259C31.2836 46.3395 26.4513 48.5176 21.3623 48.5176C12.7536 48.5176 5.56107 42.3934 3.87163 34.2774C3.84679 34.1573 3.82194 34.0414 3.7971 33.9213C3.77226 33.7805 3.73499 33.6439 3.71014 33.5031C3.71842 33.5155 3.73085 33.5279 3.73913 33.5445C3.5735 32.5797 3.46998 31.5983 3.46998 30.5838C3.46998 29.0145 3.69772 27.4989 4.0911 26.0497C4.0911 26.0414 4.08696 26.0331 4.08282 26.0248C4.10766 25.9296 4.14078 25.8426 4.16977 25.7474C4.23188 25.5279 4.29814 25.3126 4.36853 25.1014L4.37267 25.089ZM3.71842 18.5466C5.09317 10.0166 12.5052 3.48239 21.412 3.48239C26.588 3.48239 31.4327 5.66046 34.795 9.47412V13.9959C31.0269 10.9482 26.3147 9.25465 21.3665 9.25465C14.1201 9.25465 7.60248 12.8488 3.71842 18.5424V18.5466Z" fill="black"/>
<path d="M143.76 50.8903V55.7102L143.64 55.7847C143.408 55.9255 143.139 56.0539 142.845 56.1615C142.559 56.2651 142.257 56.3561 141.95 56.4307C141.64 56.5052 141.321 56.559 141.002 56.5922C140.683 56.6294 140.381 56.646 140.108 56.646C139.313 56.646 138.596 56.5093 137.971 56.2443C137.346 55.9793 136.807 55.6149 136.377 55.1595C135.946 54.704 135.611 54.1698 135.383 53.5694C135.159 52.9731 135.043 52.3354 135.043 51.6729C135.043 50.9731 135.168 50.3147 135.412 49.7143C135.656 49.1098 135.996 48.5798 136.431 48.1326C136.861 47.6895 137.387 47.3334 137.992 47.0808C138.596 46.8282 139.263 46.6998 139.979 46.6998C140.836 46.6998 141.549 46.8116 142.103 47.0269C142.658 47.2464 143.13 47.557 143.511 47.9421L143.677 48.1119L142.48 49.3955L142.298 49.2216C141.954 48.8945 141.586 48.6626 141.209 48.5342C140.389 48.2609 139.408 48.2733 138.687 48.6046C138.302 48.7785 137.971 49.0187 137.698 49.3127C137.424 49.6108 137.209 49.9628 137.064 50.3686C136.911 50.7744 136.836 51.2133 136.836 51.6729C136.836 52.1325 136.919 52.5922 137.085 52.9938C137.25 53.3996 137.478 53.7557 137.768 54.0539C138.058 54.3479 138.402 54.5839 138.795 54.7537C139.532 55.0725 140.48 55.0518 141.255 54.8903C141.557 54.8282 141.818 54.7413 142.041 54.6336V52.5301H140.05V50.8903H143.76Z" fill="#0B2032"/>
<path d="M149.748 49.8965L149.677 51.6274L149.375 51.5446C149.288 51.5197 149.205 51.5032 149.118 51.4866C149.04 51.47 148.961 51.4659 148.882 51.4659C148.389 51.4659 148.029 51.5943 147.781 51.8551C147.528 52.1201 147.404 52.5549 147.404 53.1471V56.4183H145.764V49.9007H147.404V50.3686C147.52 50.2651 147.648 50.1698 147.785 50.087C147.959 49.9835 148.149 49.9007 148.356 49.8427C148.774 49.7185 149.218 49.7185 149.57 49.8386L149.748 49.8965Z" fill="#0B2032"/>
<path d="M157.143 51.8261C156.965 51.4203 156.72 51.0559 156.41 50.7495C156.103 50.439 155.735 50.1905 155.317 50.0166C154.48 49.6605 153.445 49.6605 152.608 50.0166C152.19 50.1905 151.822 50.439 151.515 50.7495C151.205 51.0559 150.956 51.4203 150.782 51.8261C150.604 52.2402 150.513 52.6874 150.513 53.1595C150.513 53.6315 150.604 54.0787 150.782 54.4969C150.956 54.9069 151.205 55.2712 151.515 55.5777C151.822 55.8799 152.19 56.1242 152.608 56.3023C153.027 56.4804 153.482 56.5715 153.962 56.5715C154.443 56.5715 154.898 56.4804 155.317 56.3023C155.735 56.1242 156.103 55.8799 156.41 55.5777C156.72 55.2712 156.969 54.9069 157.143 54.4969C157.321 54.0787 157.412 53.6315 157.412 53.1595C157.412 52.6874 157.321 52.2402 157.143 51.8261ZM153.234 54.8655C153.023 54.7744 152.84 54.6501 152.695 54.4928C152.55 54.3396 152.435 54.1449 152.356 53.9172C152.273 53.6895 152.232 53.4328 152.232 53.1595C152.232 52.8862 152.273 52.6294 152.356 52.3975C152.435 52.1739 152.55 51.9793 152.695 51.822C152.84 51.6688 153.023 51.5404 153.234 51.4493C153.449 51.3582 153.693 51.3127 153.962 51.3127C154.232 51.3127 154.476 51.3582 154.691 51.4493C154.902 51.5404 155.085 51.6688 155.23 51.822C155.374 51.9793 155.49 52.1739 155.569 52.3975C155.652 52.6294 155.693 52.8862 155.693 53.1595C155.693 53.4328 155.652 53.6895 155.569 53.9172C155.49 54.1449 155.374 54.3396 155.23 54.4928C155.085 54.6501 154.902 54.7743 154.691 54.8696C154.265 55.0518 153.66 55.0518 153.234 54.8655Z" fill="#0B2032"/>
<path d="M164.754 49.9006V56.4183H163.114V55.9545C162.994 56.058 162.857 56.1532 162.708 56.2402C162.315 56.4596 161.859 56.5715 161.354 56.5715C161.031 56.5715 160.725 56.5218 160.435 56.4224C160.141 56.323 159.88 56.1656 159.652 55.9586C159.429 55.7474 159.25 55.4742 159.118 55.1512C158.985 54.8323 158.923 54.4514 158.923 54.0207V49.9006H160.563V53.706C160.563 53.9503 160.596 54.1657 160.658 54.3354C160.72 54.4969 160.803 54.6294 160.903 54.7247C161.006 54.824 161.118 54.8944 161.25 54.9358C161.578 55.0476 161.959 55.0187 162.257 54.9069C162.426 54.8447 162.567 54.7454 162.696 54.6087C162.824 54.4721 162.923 54.2899 162.998 54.0704C163.072 53.8427 163.114 53.5652 163.114 53.2464V49.9006H164.754Z" fill="#0B2032"/>
<path d="M173.143 51.8344C172.989 51.4203 172.766 51.0518 172.476 50.7412C172.19 50.4307 171.834 50.1822 171.428 50.0083C170.662 49.6812 169.66 49.6274 168.774 50.0373C168.559 50.1367 168.364 50.2609 168.194 50.4017V49.9007H166.555V60.0001H168.194V55.9255C168.356 56.058 168.538 56.174 168.741 56.2733C169.594 56.6791 170.642 56.646 171.428 56.3065C171.834 56.1367 172.186 55.8924 172.476 55.5818C172.766 55.2754 172.989 54.911 173.143 54.4969C173.3 54.087 173.375 53.6357 173.375 53.1595C173.375 52.6833 173.3 52.2444 173.143 51.8344ZM169.201 54.8655C168.989 54.7744 168.807 54.6501 168.662 54.4928C168.517 54.3396 168.401 54.145 168.319 53.9172C168.236 53.6895 168.194 53.4328 168.194 53.1595C168.194 52.8862 168.236 52.6294 168.319 52.3976C168.401 52.174 168.517 51.9793 168.662 51.822C168.807 51.6688 168.989 51.5404 169.201 51.4493C169.412 51.3582 169.656 51.3127 169.925 51.3127C170.194 51.3127 170.443 51.3582 170.654 51.4493C170.865 51.5404 171.047 51.6688 171.192 51.822C171.337 51.9793 171.453 52.174 171.536 52.3976C171.619 52.6294 171.66 52.8862 171.66 53.1595C171.66 53.4328 171.619 53.6895 171.536 53.9172C171.453 54.145 171.337 54.3396 171.192 54.4928C171.047 54.6501 170.865 54.7744 170.654 54.8696C170.228 55.0518 169.627 55.0518 169.201 54.8655Z" fill="#0B2032"/>
<path d="M165.201 22.5217C169.437 22.5217 172.679 25.7142 172.683 30.1242C172.683 32.2981 171.901 34.1739 170.609 35.5238L172.862 37.7763C174.816 35.8674 175.992 33.1842 175.992 30.1242C175.992 24.0745 171.363 19.4948 165.205 19.4989C162.153 19.4989 159.487 20.6293 157.574 22.501L159.818 24.7412C161.16 23.354 163.048 22.5258 165.209 22.5258L165.201 22.5217Z" fill="#0B2032"/>
<path d="M170.604 35.5196C169.259 36.9192 167.366 37.7515 165.209 37.7515C160.952 37.7515 157.731 34.5589 157.727 30.1283C157.727 27.9585 158.509 26.0828 159.809 24.737L157.565 22.4968C155.615 24.4016 154.443 27.0807 154.443 30.1324C154.443 36.2028 159.052 40.7825 165.209 40.7784C168.261 40.7784 170.936 39.648 172.857 37.7722L170.604 35.5196Z" fill="#D5963B"/>
<path d="M173.267 36.6874C173.267 37.557 172.563 38.2609 171.694 38.2609C170.824 38.2609 170.12 37.557 170.12 36.6874C170.12 35.8178 170.824 35.1139 171.694 35.1139C172.563 35.1139 173.267 35.8178 173.267 36.6874Z" fill="#0B2032"/>
<path d="M160.17 23.71C160.17 24.5879 159.462 25.3001 158.58 25.3001C157.702 25.3001 156.99 24.592 156.99 23.7142C156.99 22.8363 157.698 22.1241 158.576 22.1241C159.454 22.1241 160.166 22.8322 160.166 23.71H160.17Z" fill="#D5963B"/>
</svg>
